<svg width="543" height="390" viewBox="0 0 543 390" fill="none" xmlns="http://www.w3.org/2000/svg">
<path d="M26.2708 173.755H74.0472C76.3103 173.755 78.3219 171.995 78.3219 169.48V126.733C78.3219 124.47 76.5617 122.458 74.0472 122.458H26.2708C24.0077 122.458 21.9961 124.218 21.9961 126.733V169.48C22.2475 171.995 24.0077 173.755 26.2708 173.755ZM92.1519 173.755H139.928C142.191 173.755 144.203 171.995 144.203 169.48V126.733C144.203 124.47 142.443 122.458 139.928 122.458H92.1519C89.8888 122.458 87.8772 124.218 87.8772 126.733V169.48C88.1286 171.995 89.8888 173.755 92.1519 173.755ZM159.29 173.755H207.067C209.33 173.755 211.341 171.995 211.341 169.48V126.733C211.341 124.47 209.581 122.458 207.067 122.458H159.29C157.027 122.458 155.015 124.218 155.015 126.733V169.48C155.015 171.995 156.776 173.755 159.29 173.755ZM225.423 173.755H273.199C275.462 173.755 277.474 171.995 277.474 169.48V126.733C277.474 124.47 275.714 122.458 273.199 122.458H225.423C223.16 122.458 221.148 124.218 221.148 126.733V169.48C221.148 171.995 223.16 173.755 225.423 173.755ZM92.1519 112.652H139.928C142.191 112.652 144.203 110.64 144.203 108.377V65.6296C144.203 63.3665 142.443 61.3549 139.928 61.3549H92.1519C89.8888 61.3549 87.8772 63.1151 87.8772 65.6296V108.377C88.1286 110.64 89.8888 112.652 92.1519 112.652ZM159.29 112.652H207.067C209.33 112.652 211.341 110.64 211.341 108.377V65.6296C211.341 63.3665 209.581 61.3549 207.067 61.3549H159.29C157.027 61.3549 155.015 63.1151 155.015 65.6296V108.377C155.015 110.64 156.776 112.652 159.29 112.652ZM225.423 112.652H273.199C275.462 112.652 277.474 110.64 277.474 108.377V65.6296C277.474 63.3665 275.462 61.3549 273.199 61.3549H225.423C223.16 61.3549 221.148 63.1151 221.148 65.6296V108.377C221.148 110.64 223.16 112.652 225.423 112.652ZM225.423 51.2967H273.199C275.462 51.2967 277.474 49.5366 277.474 47.022V4.27476C277.474 2.01167 275.462 0 273.199 0L225.423 0C223.16 0 221.148 1.76021 221.148 4.27476V47.022C221.148 49.2851 223.16 51.2967 225.423 51.2967ZM292.058 173.755H339.834C342.098 173.755 344.109 171.995 344.109 169.48V126.733C344.109 124.47 342.349 122.458 339.834 122.458H292.058C289.795 122.458 287.783 124.218 287.783 126.733V169.48C288.035 171.995 289.795 173.755 292.058 173.755Z" fill="#0091E2"/>
<path d="M0.499831 209.499C-1.50017 189.499 14.6665 184.499 22.9998 184.499H350.5C384.5 184.499 407.667 177.833 415 174.5C388.6 138.5 410.333 93.1667 424.5 75C458.5 91.4 469.333 123.833 470.5 137.999C508.5 129.999 534.333 143.666 542.5 151.499C531.7 195.499 482 204.832 458.5 203.999C408.9 358.799 254.833 391.832 184 388.999C35.2 396.599 -0.333446 272.499 0.499831 209.499Z" fill="#0091E2"/>
</svg>
