<svg width="459" height="689" viewBox="0 0 459 689" fill="none" xmlns="http://www.w3.org/2000/svg">
<path d="M229.283 344.315C229.283 281.073 280.553 229.543 344.055 229.543C407.297 229.543 458.827 280.813 458.827 344.315C458.827 407.557 407.557 459.087 344.055 459.087C280.813 459.087 229.283 407.557 229.283 344.315Z" fill="#1ABCFE"/>
<path d="M0 573.6C0 510.358 51.27 458.828 114.772 458.828H229.544V573.6C229.544 636.842 178.274 688.372 114.772 688.372C51.27 688.372 0 637.102 0 573.6Z" fill="#0ACF83"/>
<path d="M229.283 0.260254V229.544H344.055C407.297 229.544 458.827 178.274 458.827 114.772C458.827 51.5303 407.557 0 344.055 0H229.283V0.260254Z" fill="#FF7262"/>
<path d="M0 115.032C0 178.273 51.27 229.804 114.772 229.804H229.544V0.259766H114.772C51.27 0.259766 0 51.5298 0 115.032Z" fill="#F24E1E"/>
<path d="M0 344.315C0 407.557 51.27 459.087 114.772 459.087H229.544V229.543H114.772C51.27 229.543 0 281.073 0 344.315Z" fill="#A259FF"/>
</svg>
