<svg width="462" height="639" viewBox="0 0 462 639" fill="none" xmlns="http://www.w3.org/2000/svg">
<path d="M454.734 307.572C454.734 433.993 354.504 536.577 230.798 536.577C107.091 536.577 6.86353 433.993 6.86353 307.572C6.86353 181.148 107.093 78.5648 230.798 78.5648C354.506 78.5648 454.736 181.148 454.736 307.572" fill="#D33833"/>
<path d="M16.0728 364.28C16.0728 364.28 -0.180215 125.524 219.963 118.659L204.613 93.0131L85.2398 133.107L51.1086 172.299L21.3109 229.369L4.3335 295.832L9.39139 340.261" fill="#EF3D3A"/>
<path d="M77.4737 151.349C38.2864 191.623 13.9051 247.07 13.9051 308.474C13.9051 369.879 38.2864 425.324 77.4737 465.598C116.843 505.873 170.842 530.616 230.798 530.616C290.755 530.616 344.752 505.873 384.122 465.6C423.311 425.324 447.69 369.879 447.69 308.474C447.69 247.068 423.311 191.623 384.122 151.349C344.754 111.255 290.755 86.3331 230.798 86.3331C171.022 86.3331 116.845 111.074 77.4737 151.349ZM67.5418 475.17C25.8264 432.548 0 373.492 0 308.474C0 243.457 25.8264 184.399 67.5418 141.596C109.259 98.974 167.049 72.4254 230.8 72.4254C294.548 72.4254 352.338 98.974 394.056 141.596C435.771 184.219 461.597 243.275 461.597 308.474C461.597 373.49 435.771 432.548 394.056 475.17C352.338 517.973 294.548 544.341 230.798 544.341C167.049 544.341 109.259 517.973 67.5418 475.17Z" fill="#231F20"/>
<path d="M325.069 308.835L290.936 313.891L244.885 319.13L215.087 319.852L186.012 318.949L163.798 312.087L144.113 290.774L128.763 247.248L125.332 237.856L104.925 230.995L93.0042 211.31L84.5173 183.134L93.9088 158.393L116.122 150.626L134.001 159.115L142.487 177.899L152.782 176.272L156.212 171.938L152.782 152.251L151.879 127.508L156.935 93.3753L156.755 73.8706L172.285 48.9474L199.555 29.2607L247.233 8.85324L300.147 16.618L346.198 49.8502L367.508 83.9833L381.232 108.726L384.664 170.131L374.37 223.048L355.587 270.006L337.891 295.109" fill="#F0D6B7"/>
<path d="M296.174 456.388L174.273 461.445V481.852L184.567 553.553L179.509 559.512L94.2691 530.436L88.3103 520.141L79.8216 423.699L59.7757 365.905L55.4421 352.18L123.706 305.224L145.017 296.734L163.798 319.85L180.051 334.3L198.834 340.26L207.321 342.79L217.615 387.217L225.381 396.609L245.065 389.746L231.34 416.292L305.383 451.33L296.174 456.387" fill="#335061"/>
<path d="M93.9088 158.753L116.122 150.988L134.001 159.476L142.488 178.26L152.782 176.634L155.312 166.339L150.254 146.653L155.31 99.6966L150.976 74.0508L166.326 56.1715L199.555 29.8031L190.164 16.9802L143.21 40.096L123.526 55.4489L112.51 79.2874L95.5341 102.405L90.478 129.676L93.9088 158.753Z" fill="#6D6B6D"/>
<path d="M128.945 78.5647C128.945 78.5647 141.765 46.9598 192.874 31.6087C243.98 16.2576 195.403 20.5913 195.403 20.5913L139.958 41.9034L118.65 63.2137L109.259 80.1901L128.945 78.5647ZM103.3 152.794C103.3 152.794 85.4201 93.013 153.684 84.5257L151.156 74.231L104.203 85.2483L90.478 129.678L93.9088 158.753L103.3 152.794Z" fill="#DCD9D8"/>
<path d="M130.57 232.079L141.765 221.242C141.765 221.242 146.823 221.785 147.726 227.744C148.628 233.705 151.156 287.525 187.818 316.421C191.248 319.13 160.548 312.086 160.548 312.086L133.276 269.463M287.505 215.824C287.505 215.824 289.491 189.998 296.534 191.985C303.578 193.971 303.578 201.013 303.578 201.013C303.578 201.013 286.602 211.85 287.505 215.824ZM358.297 121.189C358.297 121.189 344.21 124.077 342.947 136.54C341.682 149.001 358.297 139.068 360.825 138.165M255.179 122.092C255.179 122.092 236.396 124.62 236.396 136.54C236.396 148.458 257.707 147.556 263.666 142.499M139.237 177.537C139.237 177.537 106.913 157.85 103.482 176.634C100.051 195.416 92.4655 208.96 108.538 228.647L97.5216 225.216L87.2292 198.847L83.7966 173.201L103.482 152.794L125.694 154.419L138.516 164.714L139.239 177.537M154.589 123.717C154.589 123.717 169.035 48.5852 242.357 34.1369C302.673 22.2167 334.458 36.6669 346.378 50.3908C346.378 50.3908 292.561 -13.5418 241.452 5.96286C190.346 25.6495 152.782 61.4081 153.684 84.3455C155.13 123.715 154.587 123.715 154.587 123.715M352.337 58.8799C352.337 58.8799 327.597 57.9771 326.692 80.1902C326.692 80.1902 326.692 83.6229 328.319 87.0539C328.319 87.0539 348.003 64.8391 359.923 76.7592" fill="#F7E4CD"/>
<path d="M244.162 89.4019C244.162 89.4019 239.829 55.4489 210.934 75.1338C192.151 87.9567 193.956 105.836 197.209 109.269C200.64 112.7 199.737 119.562 202.265 114.868C204.793 110.172 204.07 94.8205 213.462 90.4849C222.671 86.1511 238.204 81.457 244.162 89.4019Z" fill="#F7E4CD"/>
<path d="M163.98 319.852L83.793 355.609C83.793 355.609 117.023 487.811 100.046 528.808L88.1284 524.475L87.2256 474.086L65.012 378.728L55.6206 352.358L139.235 296.01L163.977 319.85M172.105 392.995L183.482 406.902V458.012H169.939C169.939 458.012 168.314 422.253 168.314 417.92C168.314 413.584 169.939 398.233 169.939 398.233M172.467 465.779L134.001 467.404L145.017 475.17L172.285 479.506" fill="#49728B"/>
<path d="M303.76 457.291L335.361 456.388L343.127 534.769L310.801 539.105L303.758 457.289" fill="#335061"/>
<path d="M312.247 457.291L359.923 454.761C359.923 454.761 379.608 405.277 379.608 402.749C379.608 400.219 396.584 331.05 396.584 331.05L358.117 290.956L350.351 284.094L329.945 304.501V383.787L312.247 457.291Z" fill="#335061"/>
<path d="M333.556 451.33L303.758 457.291L308.093 481.131C319.108 486.188 337.891 472.642 337.891 472.642M334.458 301.973L394.236 346.401L395.861 325.991L350.713 284.274L334.46 301.973" fill="#49728B"/>
<path d="M202.085 625.252L184.387 553.553L175.538 500.636L174.093 461.445L254.094 457.111H303.758L299.244 546.689L307.008 615.86L306.106 628.683L241.272 633.741L202.085 625.252Z" fill="white"/>
<path d="M292.741 456.388C292.741 456.388 288.408 545.066 301.23 608.276C301.23 608.276 275.585 624.53 238.202 628.683L309.899 626.155L318.385 621.099L308.093 481.312L305.383 451.33" fill="#DCD9D8"/>
<path d="M344.392 528.088L377.621 518.696L440.649 515.265L450.04 486.188L433.063 435.799L413.379 433.271L386.109 441.76L360.103 454.583L346.198 452.053L335.361 456.388" fill="white"/>
<path d="M343.85 510.931C343.85 510.931 366.063 500.636 369.494 501.539L360.103 454.583L371.12 450.247C371.12 450.247 378.886 494.677 378.886 499.733C378.886 499.733 426.562 502.261 430.895 502.261C430.895 502.261 441.189 482.575 438.661 462.167L448.053 489.439L448.955 504.79L435.231 525.197L419.88 528.63L394.236 527.727L385.747 516.71L355.949 521.044L346.558 524.476" fill="#DCD9D8"/>
<path d="M310.259 450.427L291.476 402.749L271.792 374.573C271.792 374.573 276.128 362.655 282.087 362.655H301.772L320.555 369.517L318.928 401.123L310.259 450.427Z" fill="white"/>
<path d="M314.052 434.174C314.052 434.174 290.213 388.12 290.213 381.257C290.213 381.257 294.548 370.962 300.507 373.492C306.468 376.02 319.29 382.884 319.29 382.884V366.628L290.213 360.669L270.529 363.197L303.758 441.94L310.619 442.843" fill="#DCD9D8"/>
<path d="M209.669 321.658L186.012 319.128L163.798 312.266V320.032L174.633 331.952L208.766 347.304" fill="white"/>
<path d="M171.564 324.186C171.564 324.186 197.93 335.203 206.6 332.675L207.501 342.97L183.664 337.912L169.217 327.617L171.564 324.186Z" fill="#DCD9D8"/>
<path d="M344.392 365.545C329.945 365.183 316.76 363.377 305.383 360.126C306.106 355.43 304.66 350.917 305.925 347.484C309.176 345.136 314.412 345.136 319.288 344.595C315.135 342.608 309.176 341.705 304.48 342.97C304.298 339.719 302.855 337.731 301.95 335.203C310.079 332.313 329.222 313.351 340.057 319.49C345.295 322.561 347.462 339.537 347.823 348.026C348.183 354.888 347.1 361.752 344.392 365.545Z" fill="#D33833"/>
<path d="M344.392 365.545C329.945 365.183 316.76 363.377 305.383 360.126C306.106 355.43 304.66 350.917 305.925 347.484C309.176 345.136 314.412 345.136 319.288 344.595C315.135 342.608 309.176 341.705 304.48 342.97C304.298 339.719 302.855 337.731 301.95 335.203C310.079 332.313 329.222 313.351 340.057 319.49C345.295 322.561 347.462 339.537 347.823 348.026C348.183 354.888 347.1 361.752 344.392 365.545Z" fill="black" stroke="#D33833" stroke-width="11.9904"/>
<path d="M275.225 341.885C275.225 342.97 275.225 344.051 275.043 345.136C270.529 348.026 263.304 348.026 258.248 350.554C265.473 350.915 271.252 352.72 276.308 355.068C276.126 357.778 276.126 360.669 275.948 363.377C267.639 368.976 260.055 377.465 250.303 382.882C245.608 385.412 229.535 391.913 224.659 390.648C221.949 389.926 221.588 386.495 220.506 383.244C218.158 376.382 212.739 365.183 212.197 354.708C211.655 341.525 210.211 319.31 224.477 322.018C236.034 324.186 249.399 329.424 258.248 334.3C263.846 337.551 266.917 341.162 275.225 341.885Z" fill="#D33833"/>
<path d="M275.225 341.885C275.225 342.97 275.225 344.051 275.043 345.136C270.529 348.026 263.304 348.026 258.248 350.554C265.473 350.915 271.252 352.72 276.308 355.068C276.126 357.778 276.126 360.669 275.948 363.377C267.639 368.976 260.055 377.465 250.303 382.882C245.608 385.412 229.535 391.913 224.659 390.648C221.949 389.926 221.588 386.495 220.506 383.244C218.158 376.382 212.739 365.183 212.197 354.708C211.655 341.525 210.211 319.31 224.477 322.018C236.034 324.186 249.399 329.424 258.248 334.3C263.846 337.551 266.917 341.162 275.225 341.885Z" fill="black" stroke="#D33833" stroke-width="11.9904"/>
<path d="M283.352 357.598C282.087 350.372 280.642 348.388 281.184 342.065C300.507 329.242 303.94 364.1 283.352 357.598Z" fill="#D33833"/>
<path d="M283.352 357.598C282.087 350.372 280.642 348.388 281.184 342.065C300.507 329.242 303.94 364.1 283.352 357.598Z" fill="black" stroke="#D33833" stroke-width="11.9904"/>
<path d="M311.162 363.377C311.162 363.377 305.203 354.888 309.536 352.36C313.872 349.832 318.025 352.36 320.553 348.026C323.083 343.691 320.553 341.164 321.456 336.106C322.359 331.05 326.512 330.147 330.847 329.244C335.181 328.339 347.1 326.714 348.726 330.869L343.669 315.517L333.375 312.086L301.05 330.869L299.424 340.261V359.043M221.588 391.551C220.505 378.186 219.422 365.003 218.338 351.637C216.532 331.772 223.033 335.201 240.369 335.201C243.079 335.201 256.622 338.274 257.527 340.261C262.223 349.832 249.761 347.664 262.943 354.888C273.96 360.849 293.646 351.277 289.13 337.731C286.6 334.661 276.128 336.829 272.335 334.841L252.289 324.548C243.802 320.213 224.297 313.711 215.267 319.852C192.331 335.383 216.712 374.395 224.839 390.648" fill="#EF3D3A"/>
<path d="M244.162 89.4019C220.866 83.9833 209.309 99.1542 202.265 114.866C195.944 113.422 198.472 104.753 200.099 100.419C204.251 89.0415 221.048 73.6886 234.771 75.8564C240.55 76.579 248.496 81.9975 244.162 89.4019ZM357.394 115.768H358.477C363.715 126.606 368.229 138.165 374.912 147.918C370.399 158.393 341.322 167.422 341.682 149.001C348.003 146.292 358.84 148.458 364.438 144.847C361.187 135.998 356.672 128.409 357.394 115.768ZM255.902 116.133C260.958 125.342 262.581 134.915 269.625 141.778C272.877 144.847 279.016 148.64 275.948 157.308C275.225 159.295 269.987 163.811 266.916 164.714C255.902 167.965 230.075 165.437 238.744 151.529C247.953 151.891 260.235 157.49 267.098 150.806C261.86 142.499 252.469 125.883 255.902 116.133ZM353.241 208.96C336.626 219.617 318.023 231.357 290.575 228.647C284.797 223.59 282.449 212.211 288.227 204.808C291.116 209.864 289.31 219.256 297.619 220.7C313.149 223.41 331.208 211.128 342.405 206.976C349.266 195.236 341.864 191.082 335.543 183.496C322.721 168.145 305.745 149.001 306.286 126.065C311.524 122.272 311.884 131.844 312.607 133.469C319.288 149.001 336.085 169.048 348.183 182.413C351.254 185.664 356.13 188.915 356.672 191.082C358.297 197.222 352.519 204.804 353.241 208.96ZM133.276 197.764C128.04 194.694 126.777 181.69 120.636 181.328C111.787 180.788 113.412 198.307 113.412 208.599C107.453 203.183 106.369 186.204 110.704 177.537C105.648 175.007 103.478 180.245 100.59 182.051C104.383 155.864 139.055 169.951 133.276 197.764ZM363.715 219.977C355.949 234.788 344.933 251.042 322.178 251.584C321.636 246.888 321.276 239.484 322.178 236.593C339.696 234.788 350.531 225.938 363.715 219.977ZM254.637 229.549C269.084 237.136 295.811 238.038 315.677 237.496C316.76 241.832 316.76 247.248 316.76 252.487C291.298 253.57 261.318 247.248 254.637 229.549ZM251.928 243.637C262.041 268.921 296.534 266.032 325.609 265.31C324.346 268.56 321.636 272.534 318.025 273.797C308.634 277.59 282.989 280.481 269.987 273.617C261.86 269.283 256.442 259.349 251.928 253.57C249.941 250.861 239.106 243.817 251.928 243.637Z" fill="#231F20"/>
<path d="M351.976 382.882C340.237 403.109 328.862 423.879 314.957 441.578C320.733 424.421 323.261 395.525 324.166 373.492C336.446 367.711 346.92 374.753 351.976 382.882Z" fill="#81B0C4"/>
<path d="M415.365 455.486C402.182 458.194 392.971 471.017 379.969 470.114C387.192 460.18 399.472 455.846 415.365 455.486ZM421.143 476.073C410.309 477.158 397.667 478.964 386.832 478.061C392.068 470.114 411.934 473.003 421.143 476.073ZM424.936 493.954C412.837 494.135 397.847 493.954 386.289 493.05C393.151 485.645 417.17 490.341 424.936 493.954Z" fill="#231F20"/>
<path d="M329.222 542.716C331.027 557.887 336.988 573.24 336.266 589.854C329.582 592.02 325.791 594.008 316.76 594.008C316.22 579.92 314.232 558.249 314.774 544.704C319.108 545.064 325.609 541.633 329.222 542.716Z" fill="#DCD9D8"/>
<path d="M309.719 318.769C303.578 322.741 298.522 327.617 292.561 331.952C279.559 332.675 272.515 331.05 263.125 323.645C263.306 323.103 264.208 323.283 264.208 322.561C278.114 328.702 295.812 320.034 309.719 318.769Z" fill="#F0D6B7"/>
<path d="M237.119 413.224C240.912 396.788 255.902 388.12 269.445 379.091C283.35 396.79 291.838 419.545 301.23 441.578C279.016 434.896 256.442 424.241 237.119 413.224Z" fill="#81B0C4"/>
<path d="M314.774 544.884C314.232 558.429 316.038 579.922 316.76 594.188C325.791 594.188 329.582 592.202 336.265 590.034C336.988 573.418 331.027 558.067 329.222 542.896C325.609 541.633 319.108 545.064 314.774 544.884ZM175.356 468.309C181.316 522.669 189.803 568.18 205.514 616.403C240.369 627.058 282.267 627.961 313.149 618.388C307.551 591.299 309.899 558.249 306.648 529.17C304.118 507.318 305.383 485.465 301.952 463.25C264.569 455.486 211.836 461.445 175.356 468.309ZM310.801 463.613C310.439 486.91 311.884 510.026 313.692 533.324C322.719 532.061 328.68 531.158 336.988 529.17C334.278 506.775 334.64 481.312 329.042 461.445C322.721 461.627 317.12 461.447 310.801 463.613ZM356.129 459.819C351.796 458.917 346.92 459.819 342.947 459.819C344.933 478.783 349.448 499.733 351.073 519.78C357.394 519.961 360.825 516.89 366.063 515.987C366.424 498.468 364.618 474.268 356.129 459.819ZM424.936 522.669C438.301 519.418 446.607 503.164 442.814 486.368C440.286 475.17 435.953 453.86 431.075 446.634C427.644 441.398 418.073 434.354 410.308 439.23C397.847 447.177 375.995 449.525 366.966 459.097C371.48 474.268 372.925 494.857 374.73 514C390.263 514.904 409.224 509.668 422.228 515.265C413.197 518.155 401.64 518.155 393.873 522.489C400.375 525.559 415.184 525.017 424.936 522.669ZM301.05 441.578C291.658 419.545 283.171 396.79 269.264 379.09C255.72 388.118 240.912 396.79 236.939 413.224C256.442 424.241 279.018 434.896 301.05 441.578ZM324.164 373.492C323.261 395.525 320.733 424.421 314.955 441.578C328.86 423.699 340.239 403.109 351.976 382.882C346.92 374.755 336.446 367.711 324.166 373.49L324.164 373.492ZM297.979 364.282C292.741 363.738 288.227 370.421 281.364 367.531C279.739 369.336 278.294 371.144 276.668 372.949C291.838 391.369 298.882 417.379 310.621 438.869C316.942 418.102 316.22 395.525 317.665 372.949C308.996 373.31 304.12 364.824 297.979 364.282ZM281.184 342.065C280.641 348.387 282.086 350.374 283.35 357.598C303.938 364.1 300.507 329.242 281.184 342.065ZM258.248 334.481C249.399 329.603 236.036 324.366 224.477 322.2C210.211 319.49 211.654 341.705 212.197 354.89C212.739 365.363 218.157 376.38 220.505 383.424C221.588 386.675 221.949 390.106 224.659 390.829C229.535 391.913 245.788 385.592 250.303 383.062C260.055 377.826 267.639 369.338 275.947 363.557C276.128 360.849 276.128 357.959 276.308 355.25C271.252 352.72 265.653 351.097 258.248 350.736C263.125 348.206 270.529 348.206 275.043 345.318C275.043 344.233 275.043 343.15 275.225 342.065C266.916 341.162 263.846 337.551 258.248 334.481ZM173.37 319.13C165.966 326.714 194.137 336.829 202.987 337.371C202.987 332.675 205.696 328.161 205.153 324.728C194.499 322.923 180.594 324.186 173.37 319.13ZM264.39 322.56C264.39 323.283 263.486 323.103 263.305 323.645C272.877 331.05 279.919 332.673 292.741 331.952C298.521 327.799 303.758 322.742 309.899 318.767C295.811 320.032 278.115 328.702 264.39 322.56ZM347.823 347.846C347.462 339.537 345.293 322.38 340.057 319.31C329.222 312.988 310.079 332.133 301.952 335.023C302.855 337.551 304.3 339.537 304.48 342.788C309.358 341.525 315.135 342.427 319.288 344.413C314.412 344.956 309.176 344.956 305.925 347.303C304.841 350.734 306.286 355.25 305.383 359.946C316.76 363.197 329.945 364.822 344.392 365.363C347.1 361.752 348.183 354.888 347.823 347.846ZM160.908 326.354C158.56 324.728 142.85 304.319 140.682 305.222C112.329 316.421 85.7822 335.746 62.1234 354.165C84.6974 402.749 93.9087 462.167 95.534 519.418C121.36 531.518 144.113 549.037 179.329 550.843C175.175 522.128 171.564 496.301 169.217 469.21C160.368 465.418 147.726 469.392 139.419 468.127C139.419 458.194 152.059 463.793 153.142 457.111C153.866 452.053 146.098 451.692 148.628 443.746C155.129 446.094 158.56 451.33 165.424 453.318C171.745 439.592 165.424 415.211 166.326 403.652C166.508 401.486 167.409 391.731 172.285 393.357C176.62 394.802 172.105 419.545 172.467 430.38C172.828 440.495 171.202 450.067 175.356 456.388C209.308 451.692 243.802 448.802 280.641 447.719C272.515 444.288 262.943 441.037 252.469 435.076C246.69 431.826 228.812 425.144 227.187 419.725C224.477 411.056 234.048 406.542 235.674 399.136C218.518 408.528 215.267 390.108 211.114 377.283C207.501 365.543 205.335 356.695 204.433 350.012C189.443 342.427 173.55 335.383 160.908 326.354ZM332.833 307.57C356.492 296.194 360.825 350.374 351.434 367.893C352.879 373.13 357.755 375.117 359.742 379.811C346.558 403.471 331.932 425.504 318.385 448.802C328.319 442.481 342.767 447.719 354.504 443.023C358.84 441.398 361.91 431.465 365.161 423.518C374.188 401.846 383.579 374.393 387.734 353.807C388.637 349.111 391.345 338.814 390.623 334.661C389.54 327.076 379.426 321.477 374.188 316.962C364.618 308.292 358.657 300.89 348.544 292.761C344.752 298.722 336.084 302.694 332.833 307.572V307.57ZM106.911 97.8892C95.7141 110.352 98.062 133.469 99.3269 150.084C119.733 137.263 146.643 151.168 146.461 172.841C156.212 172.659 150.073 160.741 148.268 152.974C142.487 127.871 158.02 100.78 148.989 77.844C131.473 79.2873 117.205 86.3295 106.911 97.8892ZM187.455 25.8297C161.993 33.0539 129.305 51.6557 118.831 74.5914C126.957 73.3282 132.555 69.3548 140.502 68.8124C143.572 68.6322 147.545 70.0774 150.976 69.1746C157.838 67.369 163.798 51.8359 169.035 46.057C174.092 40.4582 180.231 37.93 184.387 32.8737C187.095 31.6087 191.066 31.6087 191.248 27.6353C190.165 26.3703 188.9 25.4693 187.455 25.8297ZM320.191 32.6917C293.646 17.7028 248.858 6.50525 220.686 20.5913C197.93 31.9691 167.231 50.7511 156.755 74.413C166.507 97.3468 153.866 118.297 152.962 141.594C152.601 154.057 158.742 164.714 159.283 178.259C155.852 183.858 145.738 184.399 138.696 184.038C136.348 172.116 132.195 158.753 119.913 157.308C102.578 155.322 89.7553 169.77 89.0328 184.761C88.13 202.46 102.578 231.717 123.164 229.731C131.11 229.009 133.098 221.062 141.765 221.062C146.461 230.454 134.543 233.342 133.278 240.024C132.916 241.832 134.181 248.513 135.083 251.764C138.876 267.115 147.183 287.162 155.31 298.902C165.784 313.891 186.192 316.059 208.224 317.504C212.197 309.015 226.644 309.738 236.034 311.905C224.659 307.391 214.184 296.554 205.515 286.982C195.582 275.965 185.47 264.227 184.927 249.778C203.89 275.965 219.421 298.902 253.734 310.462C279.739 319.129 310.079 306.487 330.125 292.401C338.431 286.62 343.307 277.23 349.268 268.921C371.3 237.136 381.594 191.983 379.426 148.098C378.523 130.038 378.523 111.977 372.382 99.8768C366.063 87.2341 344.572 75.6762 331.93 87.2341C329.582 74.7734 342.405 67.187 357.393 71.7028C346.74 57.7969 335.543 41.361 320.191 32.6917ZM369.674 441.037C390.443 430.743 429.089 413.404 441.912 441.037C446.789 451.33 452.386 468.489 454.734 479.144C458.165 493.954 450.941 525.379 435.591 530.253C422.046 534.589 406.335 534.409 390.082 531.158C388.095 529.533 386.109 526.823 384.484 523.932C372.927 523.572 361.91 524.476 352.879 529.353C353.782 538.02 348.003 539.285 342.405 541.092C338.431 557.164 350.531 578.114 347.643 592.562C345.655 603.037 332.833 604.663 323.443 606.468C323.081 612.249 323.804 617.125 324.526 622.001C322.36 629.948 312.787 634.462 303.578 635.547C273.419 639.158 227.729 640.784 198.834 630.309C190.706 610.444 184.387 586.423 177.703 563.848C149.531 566.917 126.597 551.746 105.106 541.633C97.7016 538.202 87.4075 536.214 84.5172 530.255C81.809 524.476 82.892 513.459 82.1694 503.164C80.5441 476.616 78.9188 450.97 72.0572 423.879C68.9868 411.598 63.3884 400.943 59.5954 389.205C55.9844 378.368 49.8436 364.822 48.2183 353.985C45.8705 337.913 61.0405 337.009 70.6121 329.965C85.602 319.129 97.3394 313.169 113.592 303.416C118.47 300.528 132.916 293.303 134.541 289.871C137.794 283.191 128.944 273.799 126.597 268.56C122.804 260.253 120.816 253.209 120.276 245.081C106.731 242.915 96.2565 234.788 90.1175 225.758C79.8215 210.587 72.5978 182.593 81.6288 161.463C82.3514 159.838 85.7822 156.405 86.3246 153.877C87.4075 148.82 84.3371 142.137 84.1569 136.72C83.2541 109.087 88.8526 85.2465 107.453 76.9394C115.038 46.7796 142.125 36.847 167.591 21.8563C177.163 16.2576 187.637 12.6464 198.472 8.67122C237.299 -5.59507 297.076 -2.8867 329.402 21.4941C343.127 31.7889 364.978 53.6415 372.745 69.535C393.511 111.255 391.888 181.148 377.44 232.079C375.453 238.941 372.745 248.874 368.771 257.183C366.063 262.962 357.575 274.339 358.477 279.396C359.562 284.634 377.983 298.54 381.956 302.333C388.999 309.195 402.542 318.227 403.625 326.896C404.89 336.106 399.654 348.749 396.946 357.598C388.275 387.217 379.608 414.489 369.674 441.037Z" fill="#231F20"/>
<path d="M231.522 235.871C232.605 234.425 238.744 232.079 247.413 236.233C247.413 236.233 237.119 237.858 238.022 255.017L233.688 254.112C233.87 254.294 229.355 238.761 231.522 235.871Z" fill="#F7E4CD"/>
<path d="M306.286 382.521C306.286 385.05 304.12 387.217 301.59 387.217C299.062 387.217 296.895 385.05 296.895 382.521C296.895 379.991 299.062 377.826 301.59 377.826C304.3 377.826 306.286 379.991 306.286 382.521ZM310.982 404.374C310.982 406.904 308.816 409.07 306.286 409.07C303.758 409.07 301.59 406.904 301.59 404.374C301.59 401.844 303.758 399.678 306.286 399.678C308.996 399.678 310.982 401.666 310.982 404.374Z" fill="#1D1919"/>
</svg>
