<svg width="129" height="129" viewBox="0 0 129 129" fill="none" xmlns="http://www.w3.org/2000/svg">
<circle cx="64" cy="65" r="52" fill="white"/>
<path fill-rule="evenodd" clip-rule="evenodd" d="M64.5 129C100.122 129 129 100.122 129 64.5C129 28.8776 100.122 0 64.5 0C28.8776 0 0 28.8776 0 64.5C0 100.122 28.8776 129 64.5 129ZM65.0488 36.5982C64.5025 35.1798 63.7514 33.2296 63.6237 32.0064H50.8534C50.6151 32.0064 50.2332 31.9879 49.7844 31.9662C48.4163 31.8999 46.4263 31.8036 45.9841 32.1089C45.5869 32.6661 45.2878 33.8902 45.0096 35.0287C44.8425 35.7127 44.6829 36.3657 44.5142 36.8246C43.7263 38.9672 43.0781 41.1844 42.4269 43.4117C41.7665 45.6703 41.1031 47.9393 40.288 50.1515C38.8061 54.1737 37.5536 58.3519 36.301 62.5302C35.0432 66.7261 33.7853 70.922 32.2951 74.9601C31.8975 76.0374 31.6137 77.1141 31.33 78.1906C31.0464 79.2666 30.7629 80.3424 30.3658 81.4186C29.7861 82.9893 29.31 84.6194 28.8308 86.26C28.3421 87.9333 27.8502 89.6173 27.2421 91.26C27.0619 91.7468 26.9113 92.2613 26.7578 92.7857C26.5978 93.3324 26.4347 93.8899 26.2315 94.438C26.1635 94.6216 26.0831 94.8143 25.9997 95.0145C25.7339 95.6521 25.4366 96.3654 25.4046 97.1033H40.0124C40.1509 96.0914 40.5341 95.0738 40.895 94.1152C41.0387 93.7337 41.1789 93.3615 41.2986 93.0027C41.6575 91.9278 41.9622 90.8445 42.2649 89.768C42.6701 88.3273 43.0718 86.8988 43.5954 85.5192H66.0124L69.5954 97.1033H84.2032C84.1145 96.4901 83.8775 95.8923 83.6607 95.3454C83.5928 95.1742 83.527 95.0081 83.4682 94.848C83.1618 94.0132 82.9136 93.1661 82.6685 92.33C82.4286 91.5114 82.1917 90.7032 81.9064 89.9273C81.2016 88.0102 80.6267 86.0451 80.0549 84.0906C79.4857 82.1449 78.9196 80.2098 78.2315 78.3431C77.9393 77.5505 77.7411 76.7685 77.5429 75.9865C77.3445 75.2037 77.1461 74.4209 76.8534 73.6274C75.6643 70.4039 74.6528 67.0484 73.6413 63.6929C72.6279 60.3309 71.6144 56.969 70.4223 53.7396C70.0249 52.663 69.7414 51.5869 69.4579 50.511C69.1743 49.4342 68.8907 48.3577 68.493 47.2811C67.9129 45.7108 67.437 44.0806 66.9582 42.4401C66.4696 40.7666 65.9779 39.0822 65.3693 37.4397C65.278 37.1934 65.1683 36.9085 65.0488 36.5982ZM103.313 32.0064H89.2562V54.5597C89.5872 56.16 89.7583 57.86 89.9294 59.5596C90.1059 61.313 90.2823 63.0661 90.6343 64.7086L90.9099 67.5791C91.0809 68.368 91.1493 69.2061 91.2189 70.0578C91.2909 70.9387 91.3641 71.8341 91.553 72.7048C91.8319 73.9901 92.1089 75.557 92.1043 77.0104H99.9134C100.178 74.7155 100.522 72.2075 101.016 70.0394C101.273 68.912 101.406 67.7563 101.537 66.6167C101.664 65.5078 101.79 64.414 102.027 63.376L102.21 61.5307C102.456 60.4142 102.628 59.2123 102.8 58.0157C102.953 56.94 103.107 55.8685 103.313 54.8672V32.0064ZM54.2753 50.9475C54.4626 50.4846 54.6614 49.9931 54.7121 49.4339C54.9884 49.698 55.078 50.1602 55.1684 50.6262C55.2193 50.8884 55.2704 51.1518 55.3552 51.3817C55.627 52.1194 55.8547 52.8924 56.0861 53.6782C56.262 54.2755 56.4401 54.8802 56.6414 55.4823C57.1849 57.1077 57.6907 58.7842 58.1978 60.4654C58.924 62.8724 59.653 65.2891 60.5 67.5791C60.6958 68.1084 60.8584 68.8 61.0252 69.5094C61.2838 70.6092 61.5523 71.7515 61.97 72.3973V72.4998H47.6378C48.2101 69.8036 49.289 66.7963 50.2103 64.2986C50.6832 63.0164 51.0168 61.7208 51.3503 60.4255C51.6878 59.1145 52.0253 57.8037 52.5071 56.5075C52.8301 55.6386 53.0909 54.7325 53.3555 53.8131C53.5776 53.0415 53.8024 52.2604 54.0689 51.4842C54.1294 51.3082 54.2014 51.1301 54.2753 50.9475ZM102.853 82.2387H89.7156V97.1033H102.853V82.2387Z" fill="#064CFF"/>
</svg>
