<svg width="457" height="457" viewBox="0 0 457 457" fill="none" xmlns="http://www.w3.org/2000/svg">
<path fill-rule="evenodd" clip-rule="evenodd" d="M228.5 457C354.697 457 457 354.697 457 228.5C457 102.303 354.697 0 228.5 0C102.303 0 0 102.303 0 228.5C0 354.697 102.303 457 228.5 457ZM230.443 129.649C228.509 124.625 225.849 117.718 225.396 113.386H180.156C179.311 113.386 177.958 113.32 176.367 113.243C171.521 113.008 164.472 112.667 162.906 113.748C161.499 115.722 160.439 120.059 159.454 124.092C158.861 126.515 158.296 128.828 157.698 130.454C154.907 138.046 152.61 145.901 150.303 153.792C147.964 161.793 145.614 169.831 142.727 177.667C137.477 191.916 133.039 206.718 128.602 221.521C124.146 236.385 119.689 251.249 114.41 265.555C113.002 269.371 111.997 273.186 110.991 277C109.987 280.812 108.982 284.622 107.576 288.435C105.522 293.999 103.835 299.773 102.138 305.585C100.407 311.513 98.6641 317.479 96.5093 323.299C95.8706 325.024 95.3374 326.847 94.7939 328.705C94.2271 330.642 93.6489 332.616 92.9292 334.558C92.688 335.208 92.4033 335.891 92.1079 336.6C91.1665 338.859 90.1133 341.386 90 344H141.75C142.24 340.416 143.598 336.812 144.876 333.416C145.386 332.063 145.882 330.744 146.307 329.473C147.578 325.666 148.657 321.829 149.729 318.017C151.165 312.911 152.588 307.85 154.443 302.962H233.858L246.552 344H298.302C297.988 341.828 297.148 339.71 296.38 337.772C296.14 337.166 295.906 336.577 295.698 336.01C293.55 330.157 292.208 324.135 290.165 318.578C287.668 311.787 285.632 304.825 283.606 297.902C281.59 291.009 279.584 284.152 277.146 277.539C276.111 274.731 275.409 271.961 274.707 269.191C274.004 266.418 273.301 263.645 272.264 260.833C268.052 249.413 264.468 237.526 260.885 225.639C257.294 213.729 253.704 201.818 249.481 190.378C248.073 186.564 247.069 182.753 246.065 178.942C245.06 175.127 244.055 171.312 242.646 167.498C240.591 161.936 238.906 156.16 237.209 150.349C235.478 144.42 233.736 138.453 231.58 132.634C231.256 131.761 230.867 130.75 230.443 129.649ZM366 113.386H316.203V193.283C317.375 198.953 317.981 204.976 318.587 210.996C319.213 217.208 319.838 223.419 321.085 229.237L322.062 239.406C322.667 242.201 322.91 245.17 323.156 248.187C323.411 251.307 323.67 254.479 324.34 257.564C325.328 262.118 326.309 267.669 326.292 272.818H353.958C354.896 264.688 356.114 255.803 357.863 248.122C358.773 244.128 359.244 240.034 359.708 235.997C360.16 232.068 360.605 228.193 361.443 224.517L362.094 217.979C362.966 214.023 363.576 209.766 364.182 205.526C364.727 201.716 365.27 197.92 366 194.373V113.386ZM192.278 180.487C192.942 178.847 193.646 177.105 193.826 175.125C194.804 176.061 195.122 177.697 195.442 179.348C195.623 180.276 195.804 181.21 196.104 182.025C197.067 184.639 197.874 187.378 198.693 190.162C199.316 192.277 199.947 194.419 200.66 196.552C202.586 202.31 204.377 208.249 206.174 214.205C208.747 222.732 211.329 231.294 214.33 239.406C215.024 241.281 215.6 243.732 216.191 246.246C217.107 250.142 218.058 254.188 219.538 256.476V256.839H168.764C170.792 247.287 174.614 236.633 177.877 227.785C179.553 223.243 180.734 218.654 181.915 214.066C183.111 209.421 184.307 204.776 186.014 200.184C187.158 197.106 188.082 193.896 189.02 190.64C189.806 187.905 190.603 185.138 191.547 182.388C191.761 181.765 192.017 181.134 192.278 180.487ZM364.373 291.34H317.83V344H364.373V291.34Z" fill="url(#paint0_linear_289_208)"/>
<defs>
<linearGradient id="paint0_linear_289_208" x1="0" y1="229" x2="457" y2="229" gradientUnits="userSpaceOnUse">
<stop stop-color="#679FF3"/>
<stop offset="1" stop-color="#A388E5"/>
</linearGradient>
</defs>
</svg>
