<svg viewBox="0 0 120 120" fill="none" xmlns="http://www.w3.org/2000/svg">
<path fill-rule="evenodd" clip-rule="evenodd" d="M18 0C8.05888 0 0 8.05887 0 18V102C0 111.941 8.05887 120 18 120H102C111.941 120 120 111.941 120 102V18C120 8.05888 111.941 0 102 0H18ZM110 61.5C110 82.6142 96.2237 100.511 77.1693 106.692C74.6706 106.823 74 105.363 74 104.5V91C74 86.2 72 83.0003 71 82.0004C87.8 82.0004 92.3333 68.0003 92.5 61.0003C92.9 52.2005 89.3333 47.3337 87.5 46.0003C89.9 38.8005 88.1667 34.0004 87 32.5003C82.2 32.5003 76.3333 36.167 74 38.0003C64.8 34.4005 54.1667 36.5004 50 38.0003C44.8 33.2003 39.1667 32.3336 37 32.5003C35 37.7003 35.8333 43.667 36.5 46.0003C32.1 51.2003 31.3333 58.167 31.5 61.0003C31.5 77.0003 45.8333 81.667 53 82.0004C51.8 86.4005 49.8333 88.5004 49 89.0003C43 91.4003 36.5 85.3337 34 82.0004C30 78.4004 27.3333 79.8337 26.5 81.0004C29.3 81.4004 33.6667 88.8337 35.5 92.5004C38.3 96.5004 46.3333 96.1671 50 95.5004V104C50 105.9 48.538 106.463 47.3499 106.533C28.545 100.209 15 82.4362 15 61.5C15 35.2665 36.2665 14 62.5 14C88.7335 14 110 35.2665 110 61.5Z" fill="url(#paint0_linear_288_170)"/>
<defs>
<linearGradient id="paint0_linear_288_170" x1="0" y1="60" x2="120" y2="60" gradientUnits="userSpaceOnUse">
<stop stop-color="#6859C1"/>
<stop offset="1" stop-color="#97A7FC"/>
</linearGradient>
</defs>
</svg>
