<svg width="457" height="457" viewBox="0 0 457 457" fill="none" xmlns="http://www.w3.org/2000/svg">
<path fill-rule="evenodd" clip-rule="evenodd" d="M228.5 457C354.697 457 457 354.697 457 228.5C457 102.303 354.697 0 228.5 0C102.303 0 0 102.303 0 228.5C0 354.697 102.303 457 228.5 457ZM342.596 104H114.434V194.757C114.434 198.927 114.326 203.209 114.218 207.512C113.893 220.502 113.562 233.676 116.169 244.498C128.437 295.374 155.451 329.508 191.645 356.198C194.289 358.148 196.985 360.321 199.754 362.552C208.077 369.259 217.051 376.491 227.214 379.76C230.48 381.016 235.755 377.079 239.694 374.142C240.896 373.245 241.972 372.441 242.83 371.906L245.481 370.255C254.269 364.783 262.397 359.721 270.591 353.58L281.869 342.235C312.423 319.035 330.239 281.783 340.861 238.39C343.417 227.946 343.105 215.177 342.797 202.577C342.696 198.469 342.596 194.379 342.596 190.394V104ZM238.784 128.603C240.263 128.472 241.644 128.351 242.83 127.562C258.619 127.331 273.698 130.807 277.531 142.397C283.403 150.207 276.179 156.565 272.017 160.23L271.458 160.723C261.248 160.467 259.782 152.388 258.292 144.178C257.681 140.812 257.065 137.423 255.842 134.543C255.36 134.403 254.819 134.221 254.235 134.023C251.332 133.042 247.389 131.709 244.564 133.67C242.685 134.365 241.974 135.225 241.177 136.187C240.695 136.769 240.182 137.389 239.359 138.033C237.766 163.678 238.032 191.406 238.295 218.747C238.393 228.88 238.49 238.96 238.492 248.861C238.492 252.703 238.717 257.136 238.953 261.78C239.598 274.467 240.324 288.735 236.757 296.857C227.444 318.063 176.436 318.849 176.896 286.386C177.578 285.724 178.196 284.808 178.827 283.872C179.796 282.437 180.796 280.956 182.102 280.277C193.579 274.31 195.566 283.617 197.574 293.019C199.431 301.718 201.305 310.497 210.73 307.329L215.936 302.966C217.938 293.231 217.824 279.939 217.718 267.448C217.694 264.688 217.671 261.968 217.671 259.333V187.775C217.671 184.612 217.481 180.645 217.277 176.364C216.738 165.093 216.096 151.65 218.539 145.015C220.949 138.466 228.535 131.76 235.021 129.307C236.306 128.821 237.577 128.709 238.784 128.603ZM176.029 262.824V176.431H197.717V262.824H176.029ZM248.902 191.266V176.431H288.809V191.266H280.134V262.824H258.445V191.266H248.902Z" fill="url(#paint0_linear_289_207)"/>
<defs>
<linearGradient id="paint0_linear_289_207" x1="0" y1="229" x2="457" y2="229" gradientUnits="userSpaceOnUse">
<stop stop-color="#669FF2"/>
<stop offset="1" stop-color="#A388E5"/>
</linearGradient>
</defs>
</svg>
