<svg width="457" height="457" viewBox="0 0 457 457" fill="none" xmlns="http://www.w3.org/2000/svg">
<path fill-rule="evenodd" clip-rule="evenodd" d="M228.5 457C354.697 457 457 354.697 457 228.5C457 102.303 354.697 0 228.5 0C102.303 0 0 102.303 0 228.5C0 354.697 102.303 457 228.5 457ZM195.381 78H192.346C191.047 79.6484 189.227 80.5352 187.36 81.4434C186.221 81.998 185.064 82.5615 184 83.3115C181.448 85.1094 178.994 87.3652 176.505 89.6543C172.459 93.374 168.32 97.1807 163.513 99.2451C159.669 100.896 155.194 101.711 150.763 102.518C143.996 103.748 137.33 104.961 133.163 109.109H132.404V109.868C136.749 109.501 149 106.628 152.131 104.557C155.546 104.62 156.273 105.033 158.202 106.074V107.592C155.441 110.354 153.049 113.516 150.653 116.683C145.844 123.04 141.018 129.418 133.163 132.632C127.634 134.894 117.305 133.225 114.194 130.355H111.159C111.105 132.989 112.356 135.607 113.704 138.432C114.757 140.637 115.871 142.968 116.47 145.53C119.202 157.224 101.47 180.991 95.2246 184.228L93.707 182.71C93.6313 175.753 93.5312 160.234 96.7422 155.395V153.877H95.9834C93.0674 159.896 92.5908 166.252 92.0815 173.037C91.7065 178.039 91.314 183.274 89.9136 188.78C88.543 194.168 86.4287 198.808 84.3052 203.468C80.5347 211.742 76.7344 220.082 77.0146 232.789C78.4546 230.964 78.7671 228.408 79.0918 225.758C79.3022 224.037 79.5176 222.276 80.0498 220.648C81.3936 216.537 83.3335 212.709 85.2422 208.942C86.3442 206.769 87.4355 204.614 88.396 202.438H90.6724L95.9834 231.271C97.3418 235.466 99.1709 239.914 100.974 244.299C102.796 248.729 104.591 253.096 105.847 257.069C106.842 260.216 107.004 280.667 106.606 281.351C106.609 282.899 106.353 284.438 105.847 285.903C98.2363 285.765 85.7222 275.508 83.8433 269.969H82.3257C84.3105 277.633 90.7949 283.191 97.0732 288.573C100.952 291.898 104.752 295.156 107.365 298.802C111.662 304.798 114.352 312.104 117.055 319.445C118.945 324.58 120.842 329.731 123.299 334.464C125.546 338.681 128.082 342.736 130.886 346.604C131.849 347.922 133.216 348.911 134.589 349.905C136.031 350.948 137.479 351.996 138.474 353.434H139.233C138.505 351.457 137.281 350.235 136.052 349.009C135.307 348.266 134.561 347.521 133.921 346.604C130.085 340.848 126.784 334.752 124.058 328.394L117.229 308.666C117.38 305.504 117.76 305.189 118.746 303.354C133.321 303.698 139.646 310.51 146.22 317.589C148.955 320.534 151.733 323.526 155.167 326.118C156.915 327.438 158.665 328.776 160.424 330.121C169.125 336.775 178.026 343.584 187.793 348.881C190.331 350.257 193.735 351.496 197.344 352.81C205.626 355.823 214.98 359.229 217.385 365.574C217.709 365.988 217.769 366.016 217.824 366.148C217.873 366.266 217.918 366.466 218.144 367.091C212.623 372.327 201.341 377.274 191.587 377.714C194.765 380.4 202.805 378.245 207.521 376.955C221.088 373.244 238.376 371.082 253.046 375.438C257.026 376.62 266.249 379.231 268.98 377.714H270.498C269.914 376.768 252.716 370.64 250.77 370.126C250.821 369.606 250.911 369.092 251.037 368.586C251.164 368.077 251.328 367.577 251.529 367.091C258.18 365.685 266.092 364.774 274.246 363.837C293.103 361.668 313.253 359.351 322.093 350.398H322.852V349.64C318.101 350.791 313.422 352.456 308.711 354.132C304.866 355.5 300.999 356.876 297.054 357.986C282.774 362.005 268.087 361.553 254.064 361.121C252.962 361.087 251.864 361.053 250.77 361.021C249.869 360.125 248.847 359.359 247.735 358.745C248.134 352.169 255.426 345.687 261.813 340.009C265.006 337.171 267.973 334.534 269.739 332.188C270.928 330.607 272.271 328.692 273.761 326.569C283.919 312.087 300.866 287.927 322.093 294.249C330.235 296.674 337.497 300.866 344.672 305.008C348.759 307.367 352.818 309.71 356.996 311.701L357.755 310.942C356.961 307.655 354.861 306.733 352.495 305.694C351.488 305.252 350.432 304.789 349.409 304.113C347.72 302.999 345.816 301.841 343.829 300.632C337.556 296.816 330.449 292.494 326.646 287.421C311.411 267.104 331.622 245.982 344.201 232.838C345.238 231.754 346.223 230.725 347.132 229.754L347.608 229.799C348.971 229.928 349.359 229.964 350.167 230.513C353.534 232.142 354.356 235.981 355.215 239.995C355.515 241.395 355.819 242.815 356.237 244.171C359.652 255.244 363.713 272.018 360.79 286.662C360.26 289.315 360.296 292.116 360.331 294.822C360.383 298.919 360.433 302.801 358.514 305.631V307.148H360.031C364.311 290.953 366.584 266.317 361.548 247.965C360.726 244.968 359.775 241.943 358.815 238.887C357.328 234.154 355.816 229.346 354.72 224.442C352.849 216.081 355.305 208.848 357.645 201.956C359.074 197.749 360.459 193.669 360.79 189.539C365.384 192.557 368.421 196.96 371.467 201.376C373.554 204.4 375.644 207.431 378.241 210.026V211.544H379C378.688 203.604 374.232 199.271 369.878 195.037C366.805 192.048 363.783 189.108 362.307 184.986C360.826 182.586 361.587 177.898 362.429 172.707C363.584 165.592 364.892 157.53 360.79 153.118V151.601H360.031C360.24 160.016 359.858 168.622 359.494 176.843C359.417 178.564 359.342 180.269 359.272 181.951C355.293 180.649 352.151 177.65 349.08 174.718C347.198 172.922 345.343 171.151 343.338 169.812C340.244 167.743 336.887 165.827 333.504 163.896C325.535 159.348 317.419 154.716 312.229 147.807C306.831 140.618 302.292 132.616 297.751 124.612C292.419 115.213 287.086 105.812 280.361 97.7275V96.2109C288.107 94.7441 304.605 96.5615 309.953 100.763H310.712V99.2451C309.111 98.7881 307.812 98.0635 306.515 97.3398C305.227 96.6211 303.942 95.9033 302.366 95.4521L280.361 92.417C272.707 90.209 263.985 83.9229 259.875 78H256.082C257.382 79.9326 259.285 81.4385 261.191 82.9473C263.767 84.9854 266.35 87.0293 267.463 90.1406H268.221C267.732 91.4502 268.07 90.8828 267.463 91.6582C264.762 93.6113 260.39 93.5146 255.951 93.416C252.803 93.3457 249.621 93.2754 246.976 93.9346C237.596 96.2744 205.742 103.542 198.416 98.4863C196.632 98.502 194.656 98.583 192.603 98.668C186.321 98.9268 179.315 99.2148 174.894 97.7275C175.845 91.3701 189.504 81.2354 195.381 79.5176V78ZM254.371 96.2158C257.197 96.3311 261.185 96.4932 262.91 95.4521C278.694 95.2344 284.82 108.842 290.448 121.339C292.559 126.028 294.6 130.562 297.054 134.149L296.295 137.942C288.226 136.548 281.311 131.178 274.803 126.126C271.788 123.784 268.86 121.511 265.945 119.732C260.039 116.13 253.319 113.616 246.59 111.1C240.733 108.909 234.868 106.716 229.525 103.798C229.628 102.755 229.883 101.732 230.284 100.763C234.548 99.0547 239.916 98.1768 245.233 97.3066C247.364 96.958 249.488 96.6104 251.529 96.2109C251.998 96.1191 253.059 96.1621 254.371 96.2158ZM180.146 115.626C173.025 119.433 165.162 123.637 156.684 122.768C156.587 107.44 167.914 102.28 184 102.28C185.021 102.28 186.259 102.217 187.583 102.149C191.588 101.945 196.385 101.7 198.416 103.039L200.692 103.798C199.842 108.206 195.59 109.446 191.412 110.664C189.886 111.109 188.371 111.552 187.034 112.145C184.824 113.124 182.526 114.353 180.146 115.626ZM207.178 109.118C209.743 108.63 212.293 108.145 214.35 106.833C237.568 107.111 257.718 118.65 272.015 128.838C273.143 129.642 274.369 130.407 275.614 131.185C279.7 133.736 283.99 136.415 285.673 140.978H286.432L285.673 143.254C277.738 143.129 271.237 141.52 264.739 139.91L262.91 139.46C258.979 138.498 254.826 138.139 250.737 137.784C247.088 137.468 243.49 137.156 240.147 136.425H225.731C221.762 136.425 217.744 136.538 213.754 136.65C199.503 137.051 185.621 137.441 175.653 132.632V128.079C182.868 121.174 191.6 114.821 201.451 110.627C203.225 109.872 205.206 109.494 207.178 109.118ZM203.039 142.044C205.56 142.023 208.038 142.003 209.797 140.978C245.598 140.819 289.826 142.392 303.124 163.741C314.188 181.502 312.391 242.885 297.054 253.275C283.625 262.375 265.693 249.879 256.539 243.499L255.323 242.653C250.438 239.272 245.592 236.022 240.775 232.792C232.666 227.353 224.636 221.966 216.626 216.096C213.193 213.58 209.999 210.535 206.816 207.501C203.817 204.642 200.828 201.792 197.657 199.403C192.006 195.145 185.174 189.835 180.964 184.228C180.573 183.706 180.167 183.171 179.754 182.625C177.227 179.292 174.4 175.562 172.618 172.088C171.404 169.723 171.752 167.224 170.342 165.259C170.167 149.383 182.535 146.287 194.917 143.188C195.832 142.959 196.747 142.729 197.657 142.495C199.292 142.074 201.177 142.059 203.039 142.044ZM313.747 195.609C312.063 187.906 311.167 175.077 313.747 168.294H316.023C323.1 175.705 327.825 183.734 332.942 192.429C334.568 195.191 336.233 198.021 338.027 200.921C338.344 201.434 338.702 201.982 339.082 202.566C341.976 207.008 346.193 213.48 344.097 221.407C341.011 233.08 332.329 240.487 324.004 247.59C321.787 249.481 319.595 251.352 317.541 253.275C312.197 252.169 309.929 243.049 311.471 235.824C313.012 228.599 315.557 203.894 313.747 195.609ZM328.922 172.847L329.681 169.053C338.384 169.54 344.666 175.039 350.561 180.201C353.228 182.536 355.816 184.803 358.514 186.504C356.953 193.551 354.664 200.417 351.685 206.991C350.375 207.48 350.942 207.143 350.167 207.75C343.465 206.47 338.977 195.395 335.016 185.622C332.92 180.451 330.972 175.645 328.922 172.847ZM102.381 183.366C103.851 181.938 105.318 180.514 106.606 178.916H110.4C113.326 191.892 110.908 208.566 108.124 220.648C107.614 222.861 107.583 225.42 107.552 227.969C107.506 231.755 107.46 235.519 105.847 238.101V245.688H105.088C101.972 238.23 91.5234 205.874 94.4658 194.851C95.8335 189.729 99.1147 186.54 102.381 183.366ZM149.097 190.298C149.746 189.796 151.479 189.272 152.131 188.78C167.156 188.878 176.428 194.881 185.586 200.811C186.825 201.612 188.062 202.413 189.311 203.197C209.386 215.81 227.651 229.653 246.165 243.685C249.709 246.371 253.263 249.064 256.84 251.758C265.438 258.23 279.929 273.895 269.739 287.421C261.332 298.578 237.236 303.743 218.077 307.851C214.316 308.656 210.746 309.422 207.521 310.184C197.885 312.46 185.525 310.911 179.447 307.148C167.518 299.763 152.446 266.857 146.82 251.758C142.092 239.071 132.47 194.677 149.097 190.298ZM109.641 257.828C105.256 244.335 116.171 213.329 120.264 206.991L120.472 207C122.251 207.072 123.111 207.108 124.058 207.75C130.315 210.213 133.754 222.78 136.421 232.527C137.149 235.189 137.819 237.641 138.474 239.618C144.645 258.509 153.051 276.594 163.513 293.49C164.478 295.024 165.2 296.699 165.917 298.358C166.929 300.704 167.928 303.021 169.583 304.872V309.425C162.989 310.702 148.785 309.214 143.785 305.631C137.809 304.949 133.59 297.768 130.303 292.173C129.425 290.677 128.613 289.294 127.852 288.18C126.667 286.444 125.378 284.633 124.046 282.76C118.604 275.106 112.437 266.435 109.641 257.828ZM132.404 302.596C118.145 296.083 109.765 287.505 109.641 266.934C111.289 268.248 111.935 269.974 112.625 271.814C113.05 272.949 113.492 274.128 114.194 275.28C115.126 276.811 116.1 278.482 117.115 280.227C121.435 287.643 126.518 296.37 132.404 301.078V302.596ZM261.826 299.701C264.984 299.24 268.145 298.778 270.498 297.284H278.844C279.745 298.181 280.767 298.946 281.879 299.561C281.669 317.034 259.496 338.648 248.494 346.604C247.991 346.969 247.455 347.379 246.886 347.814C242.718 351.006 236.771 355.56 228.766 353.434C215.109 349.807 205.484 339.184 196.48 329.245C193.558 326.02 190.701 322.866 187.793 320.048C188.223 317.644 188.46 317.84 189.311 316.254C193.867 315.171 198.959 314.696 204.133 314.215C209.926 313.675 215.821 313.125 221.179 311.701C232.58 308.671 244.846 304.887 255.323 301.078C257.288 300.364 259.556 300.033 261.826 299.701ZM182.129 339.635C168.531 331.697 154.515 323.517 146.062 310.942C153.71 311.543 169.139 313.37 175.653 316.254C180.636 318.458 184.599 322.903 188.332 327.089C189.688 328.609 191.013 330.096 192.346 331.429C197.225 336.308 202.407 341.035 207.556 345.733C210.095 348.05 212.625 350.358 215.108 352.675V354.192C205.607 353.85 198.227 349.325 191.779 345.373C191.202 345.02 190.632 344.67 190.069 344.328C187.469 342.752 184.807 341.198 182.129 339.635Z" fill="url(#paint0_linear_289_209)"/>
<defs>
<linearGradient id="paint0_linear_289_209" x1="0" y1="229" x2="457" y2="229" gradientUnits="userSpaceOnUse">
<stop stop-color="#689FF4"/>
<stop offset="1" stop-color="#A388E5"/>
</linearGradient>
</defs>
</svg>
