<svg width="127" height="127" viewBox="0 0 127 127" fill="none" xmlns="http://www.w3.org/2000/svg">
<circle cx="63.5" cy="64.5" r="49.5" fill="white"/>
<path fill-rule="evenodd" clip-rule="evenodd" d="M63.5 127C98.5701 127 127 98.5701 127 63.5C127 28.4299 98.5701 0 63.5 0C28.4299 0 0 28.4299 0 63.5C0 98.5701 28.4299 127 63.5 127ZM95.2073 28.9024H31.8011V54.1236C31.8011 55.2826 31.7712 56.4728 31.7412 57.6686C31.6507 61.2785 31.5589 64.9393 32.2833 67.9467C35.6925 82.0851 43.1997 91.571 53.2579 98.9882C53.9929 99.5301 54.7423 100.134 55.5118 100.754C57.8246 102.618 60.3185 104.628 63.1426 105.536C64.0502 105.885 65.5163 104.791 66.6108 103.974C66.9446 103.725 67.2439 103.502 67.4822 103.353C67.7275 103.2 67.9709 103.049 68.2125 102.898C70.6571 101.376 72.918 99.9686 75.197 98.2606L78.3311 95.108C86.8223 88.6606 91.7732 78.3083 94.7251 66.2491C95.4355 63.347 95.3487 59.7983 95.263 56.2969C95.2351 55.1552 95.2073 54.0186 95.2073 52.911V28.9024ZM66.3582 35.7394C66.769 35.7032 67.1526 35.6693 67.4822 35.4502C71.87 35.3862 76.0606 36.3519 77.1257 39.5729C78.7574 41.7433 76.7499 43.5105 75.5935 44.5285C75.5397 44.5758 75.4877 44.6216 75.4381 44.6656C72.6007 44.5944 72.1932 42.3494 71.7791 40.0677C71.6093 39.1323 71.4384 38.1907 71.0985 37.3903C70.9644 37.3516 70.8136 37.3006 70.6512 37.2457C69.8445 36.973 68.749 36.6027 67.9643 37.1478C67.4418 37.3409 67.2443 37.5796 67.0229 37.8471C66.889 38.0089 66.7463 38.1812 66.5178 38.3604C66.0749 45.4873 66.1491 53.1935 66.2222 60.7919C66.2493 63.6075 66.2763 66.4082 66.2767 69.1593C66.2767 70.2268 66.3393 71.4587 66.405 72.7495C66.5842 76.2751 66.7858 80.2402 65.7945 82.4974C63.2065 88.3904 49.0314 88.6087 49.1594 79.5873C49.3486 79.4033 49.5204 79.1488 49.6958 78.889C49.9653 78.49 50.2433 78.0783 50.606 77.8897C53.7955 76.2312 54.3478 78.8178 54.9056 81.4305C55.4217 83.8479 55.9426 86.2877 58.5619 85.4075L60.0084 84.195C60.5648 81.4899 60.5333 77.7963 60.5036 74.3253C60.4971 73.5581 60.4906 72.8018 60.4906 72.0694V52.1835C60.4906 51.3046 60.4379 50.202 60.3811 49.0125C60.2314 45.8801 60.0528 42.1444 60.7317 40.3004C61.4017 38.4804 63.5097 36.6169 65.3124 35.9352C65.6692 35.8003 66.0228 35.7691 66.3582 35.7394ZM48.9184 73.0395V49.0309H54.9456V73.0395H48.9184ZM69.1698 53.1535V49.0309H80.2598V53.1535H77.849V73.0395H71.8217V53.1535H69.1698Z" fill="#007EDB"/>
</svg>
