<svg width="127" height="127" viewBox="0 0 127 127" fill="none" xmlns="http://www.w3.org/2000/svg">
<circle cx="63" cy="64" r="52" fill="white"/>
<path fill-rule="evenodd" clip-rule="evenodd" d="M63.5 127C98.5701 127 127 98.5701 127 63.5C127 28.4299 98.5701 0 63.5 0C28.4299 0 0 28.4299 0 63.5C0 98.5701 28.4299 127 63.5 127ZM54.2962 21.6763H53.4528C53.092 22.1345 52.5859 22.3809 52.0672 22.6334C51.7505 22.7876 51.4292 22.944 51.1334 23.1523C50.4242 23.6519 49.7424 24.279 49.0506 24.9151C47.9263 25.949 46.776 27.0068 45.4402 27.5804C44.3722 28.0394 43.1287 28.2655 41.8972 28.4896C40.0167 28.8316 38.164 29.1686 37.0059 30.3216H36.795V30.5325C38.0024 30.4304 41.4069 29.6321 42.2773 29.0565C43.2151 29.0738 43.4234 29.1862 43.9455 29.4681L43.9642 29.4782V29.8999C43.1972 30.6675 42.5325 31.546 41.8667 32.426C40.53 34.1928 39.1888 35.9654 37.0059 36.8583C35.4694 37.4869 32.5989 37.0232 31.7344 36.2258H30.891C30.8762 36.9578 31.2237 37.6855 31.5985 38.4703C31.8912 39.0832 32.2006 39.731 32.367 40.443C33.1261 43.6926 28.1985 50.2976 26.463 51.1969L26.0413 50.7752C26.0202 48.8418 25.9923 44.5293 26.8847 43.1842V42.7625H26.6738C25.8634 44.4352 25.7309 46.2015 25.5895 48.0872C25.4852 49.4772 25.3761 50.932 24.987 52.4621C24.6061 53.9593 24.0186 55.2486 23.4284 56.5437C22.3806 58.8431 21.3245 61.1607 21.4024 64.6921C21.8026 64.185 21.8895 63.4748 21.9796 62.7381C22.0381 62.26 22.098 61.7706 22.2458 61.3183C22.6192 60.1759 23.1582 59.1124 23.6885 58.0659C23.9948 57.4614 24.2983 56.8626 24.5652 56.2576H25.1978L26.6738 64.2704C27.0514 65.4359 27.5596 66.672 28.0606 67.8905C28.5669 69.1219 29.0658 70.3352 29.415 71.4397C29.6914 72.3141 29.7363 77.9974 29.6258 78.1872C29.6266 78.6178 29.5553 79.0454 29.415 79.4524C27.2999 79.414 23.8222 76.5636 23.3001 75.0243H22.8784C23.43 77.154 25.2319 78.6988 26.9767 80.1945C28.0546 81.1186 29.1107 82.024 29.8367 83.037C31.0308 84.7032 31.7784 86.7336 32.5296 88.774C33.0549 90.2007 33.5819 91.6323 34.2647 92.9475C34.8893 94.1192 35.5939 95.2464 36.3733 96.3213C36.6408 96.6875 37.0208 96.9625 37.4025 97.2386C37.803 97.5284 38.2054 97.8196 38.4819 98.2191H38.6927C38.4904 97.6699 38.1503 97.3304 37.8088 96.9896C37.6019 96.783 37.3944 96.5759 37.2167 96.3213C36.1508 94.7215 35.2332 93.0275 34.4756 91.2606L32.5779 85.7782C32.6152 84.9999 32.7022 84.8424 32.9121 84.4622C32.9392 84.4132 32.9683 84.3605 32.9996 84.3022C37.0498 84.3977 38.8076 86.2906 40.6345 88.258C41.3946 89.0765 42.1667 89.9079 43.1208 90.6281C43.6061 90.9943 44.0921 91.366 44.5805 91.7395C46.9989 93.5893 49.473 95.4816 52.1877 96.9539C52.8929 97.3364 53.8392 97.6808 54.8421 98.0457C57.1435 98.8833 59.7431 99.8293 60.4111 101.593C60.4868 101.689 60.5106 101.71 60.5253 101.736C60.5437 101.769 60.5481 101.809 60.622 102.015C59.0878 103.47 55.9525 104.845 53.242 104.967C54.125 105.713 56.3595 105.114 57.67 104.756C61.4403 103.724 66.2447 103.124 70.3215 104.334C71.4274 104.663 73.9904 105.388 74.7495 104.967H75.1712C75.0088 104.704 70.2297 103.001 69.6889 102.858C69.7175 102.568 69.7886 102.284 69.8997 102.015C71.7481 101.624 73.9469 101.371 76.213 101.11C81.4532 100.507 87.0529 99.8634 89.5096 97.3756H89.7204V97.1648C88.4002 97.4846 87.1 97.9473 85.7908 98.4131C84.7222 98.7933 83.6476 99.1757 82.5512 99.4842C78.5823 100.601 74.5004 100.476 70.603 100.355C70.2971 100.346 69.9924 100.336 69.6889 100.328C69.4384 100.079 69.1546 99.8659 68.8455 99.6951C68.9562 97.8675 70.9829 96.0661 72.7579 94.4885C73.6452 93.6999 74.4696 92.9671 74.9604 92.3149C75.2908 91.8758 75.6641 91.3437 76.0778 90.7538C78.9007 86.7293 83.6105 80.0148 89.5096 81.7719C91.7724 82.4459 93.7905 83.6108 95.7845 84.7617C96.9202 85.4173 98.0481 86.0684 99.209 86.6217L99.4199 86.4108C99.1994 85.4972 98.6157 85.241 97.958 84.9524C97.6781 84.8296 97.3849 84.7008 97.1005 84.5131C96.6313 84.2033 96.1023 83.8816 95.5501 83.5458C93.8067 82.4854 91.8316 81.2842 90.7747 79.8741C86.5409 74.2281 92.158 68.3582 95.6535 64.7053C95.9416 64.4043 96.2153 64.1182 96.4679 63.8486C96.5155 63.8533 96.5595 63.8574 96.6003 63.8613C96.9788 63.897 97.0867 63.9072 97.3113 64.0595C98.247 64.512 98.4755 65.5793 98.7143 66.6947C98.7975 67.0837 98.882 67.4784 98.9982 67.855C99.947 70.9323 101.076 75.5936 100.263 79.6633C100.116 80.4006 100.126 81.1788 100.136 81.9309C100.15 83.0694 100.164 84.1482 99.6308 84.9348V85.3565H100.052C101.242 80.8559 101.874 74.0096 100.474 68.9093C100.246 68.0769 99.9818 67.237 99.715 66.3882C99.3015 65.0727 98.8814 63.7359 98.5765 62.3726C98.0567 60.049 98.7392 58.0387 99.3895 56.1236C99.7864 54.9545 100.171 53.8208 100.263 52.673C101.54 53.5115 102.384 54.7351 103.231 55.9624C103.81 56.8028 104.391 57.6449 105.113 58.3662V58.788H105.324C105.237 56.5818 103.999 55.3774 102.789 54.2008C101.935 53.3701 101.095 52.5534 100.685 51.4078C100.273 50.7407 100.485 49.438 100.719 47.9953C101.04 46.0179 101.403 43.7777 100.263 42.5516V42.1299H100.052C100.11 44.4684 100.004 46.8602 99.9031 49.1447C99.8819 49.6231 99.8609 50.0968 99.8416 50.5644C98.7358 50.2025 97.8627 49.3691 97.0092 48.5542C96.4863 48.0551 95.9708 47.563 95.4136 47.1906C94.5535 46.6157 93.6206 46.0833 92.6803 45.5466C90.4659 44.2828 88.2105 42.9956 86.7684 41.0756C85.2683 39.0779 84.0067 36.8541 82.745 34.6299C81.2632 32.0178 79.7812 29.4054 77.9124 27.1587V26.737C80.0648 26.3296 84.6497 26.8346 86.1358 28.0022H86.3467V27.5804C85.9017 27.4535 85.5407 27.252 85.1803 27.0508C84.8225 26.8511 84.4653 26.6517 84.0273 26.5261L77.9124 25.6827C75.7852 25.0691 73.3614 23.3223 72.2192 21.6763H71.1649C71.5263 22.2135 72.0551 22.6319 72.5849 23.0511C73.3008 23.6176 74.0186 24.1856 74.3278 25.0501H74.5386C74.4629 25.2526 74.4584 25.2937 74.4403 25.3273C74.4258 25.3542 74.4026 25.3763 74.3278 25.4718C73.5772 26.0147 72.3623 25.9877 71.1286 25.9603C70.2538 25.9408 69.3695 25.9212 68.6346 26.1044C66.0278 26.7547 57.1757 28.7745 55.1397 27.3696C54.6442 27.3738 54.0952 27.3964 53.5246 27.4199C51.7788 27.4917 49.8317 27.5719 48.6031 27.1587C48.8673 25.3919 52.6632 22.5754 54.2962 22.098V21.6763ZM70.6884 26.7384C71.4739 26.7704 72.5829 26.8156 73.0626 26.5261C77.4488 26.4657 79.1514 30.2471 80.7151 33.7201C81.3019 35.0233 81.8691 36.283 82.5512 37.2801L82.3404 38.3344C80.0978 37.9468 78.1762 36.4547 76.368 35.0506C75.5299 34.3998 74.7161 33.7679 73.9061 33.2737C72.2645 32.2723 70.397 31.5739 68.5269 30.8745C66.8993 30.2658 65.2696 29.6563 63.7849 28.8456C63.8135 28.5557 63.8846 28.2715 63.9957 28.0022C65.1804 27.5276 66.6714 27.2835 68.1486 27.0418C68.7414 26.9447 69.3321 26.848 69.8997 26.737C70.0299 26.7115 70.3244 26.7235 70.6884 26.7384ZM50.0624 32.1324C48.0837 33.1903 45.8983 34.3586 43.5425 34.1171C43.5155 29.8577 46.6632 28.4239 51.1334 28.4239C51.4174 28.4239 51.7614 28.4063 52.1295 28.3875C53.2423 28.3306 54.5754 28.2625 55.1397 28.6347L55.7723 28.8456C55.5361 30.0706 54.3545 30.4152 53.1935 30.7539C52.7695 30.8776 52.3482 31.0004 51.9768 31.1651C51.3627 31.4373 50.7241 31.7787 50.0624 32.1324ZM57.5746 30.3243C58.2876 30.1885 58.9961 30.0536 59.5677 29.689C66.02 29.7664 71.6197 32.973 75.5929 35.804C75.9062 36.0273 76.2469 36.24 76.5928 36.456C77.7284 37.1652 78.9208 37.9099 79.3884 39.1778H79.5992L79.3884 39.8104C77.183 39.7757 75.3765 39.3285 73.5706 38.8814C73.4014 38.8395 73.2322 38.7976 73.0626 38.7561C71.9698 38.4886 70.8153 38.3886 69.6788 38.2902C68.6649 38.2023 67.6654 38.1158 66.7369 37.9127H62.7306C61.6276 37.9127 60.5111 37.9441 59.4026 37.9752C55.4422 38.0866 51.5842 38.1951 48.8139 36.8583V35.5932C50.819 33.6743 53.2455 31.9088 55.9831 30.7434C56.4762 30.5334 57.0268 30.4286 57.5746 30.3243ZM56.425 39.4739C57.1253 39.4682 57.8138 39.4625 58.3026 39.1778C68.2517 39.1338 80.5424 39.5707 84.2381 45.5037C87.3126 50.4393 86.8133 67.4978 82.5512 70.3853C78.819 72.914 73.8358 69.4411 71.2918 67.6681C71.1738 67.5859 71.0611 67.5074 70.954 67.4333C69.5958 66.4932 68.2488 65.5898 66.9096 64.6915C64.6567 63.1804 62.4257 61.684 60.2003 60.0531C59.2463 59.354 58.3586 58.5078 57.4739 57.6645C56.6405 56.87 55.8098 56.0781 54.9288 55.4142C53.3583 54.2306 51.4598 52.7552 50.2899 51.1969C50.1812 51.0521 50.0686 50.9035 49.9537 50.7519C49.2515 49.8254 48.4658 48.7887 47.9705 47.8231C47.8154 47.521 47.752 47.211 47.6908 46.9111C47.6188 46.5588 47.5497 46.2204 47.3379 45.9254C47.2894 41.5134 50.7264 40.6532 54.1676 39.7919C54.4218 39.7282 54.676 39.6646 54.9288 39.5995C55.3834 39.4825 55.9074 39.4782 56.425 39.4739ZM87.1901 54.3599C86.7222 52.2192 86.4732 48.6539 87.1901 46.7688H87.8227C89.7893 48.8283 91.1023 51.0594 92.5241 53.4753C92.9761 54.2433 93.4391 55.0301 93.9376 55.8359C94.0258 55.9784 94.1253 56.1311 94.231 56.2934C95.0352 57.528 96.2068 59.3265 95.6245 61.5292C94.7669 64.7728 92.3545 66.831 90.0414 68.8046C89.4249 69.3306 88.8155 69.8506 88.2444 70.3853C86.7596 70.0777 86.1291 67.5434 86.5575 65.5355C86.986 63.5277 87.6932 56.662 87.1901 54.3599ZM91.4073 48.034L91.6181 46.9797C94.0368 47.1153 95.7823 48.6435 97.4206 50.078C98.1618 50.7269 98.881 51.3566 99.6308 51.8295C99.197 53.7879 98.561 55.6959 97.733 57.5228C97.5305 57.5985 97.4895 57.603 97.4558 57.6212C97.4289 57.6356 97.4068 57.6588 97.3113 57.7336C95.4488 57.3779 94.2014 54.3001 93.1007 51.5842C92.5183 50.1473 91.9769 48.8117 91.4073 48.034ZM28.4518 50.9575C28.8603 50.5607 29.2679 50.1647 29.6258 49.7209H30.6801C31.4932 53.3266 30.8212 57.9605 30.0476 61.3183C29.9059 61.9333 29.8973 62.6443 29.8887 63.3527C29.876 64.4045 29.8633 65.4506 29.415 66.1681V68.2767H29.2041C28.3379 66.2044 25.4344 57.2124 26.2521 54.149C26.6321 52.7254 27.5441 51.8394 28.4518 50.9575ZM41.8616 52.6692C42.0251 52.5993 42.1878 52.5297 42.2773 52.4621C46.4524 52.4892 49.0291 54.1573 51.5741 55.8049C51.9185 56.0278 52.2623 56.2504 52.6094 56.4685C58.1876 59.9732 63.2631 63.8199 68.4076 67.7191C69.3931 68.466 70.3811 69.2149 71.3758 69.9636C73.765 71.7623 77.7922 76.1153 74.9604 79.8741C72.6242 82.9749 65.9282 84.4102 60.6038 85.5514C59.5585 85.7755 58.5662 85.9882 57.67 86.2C54.9921 86.8326 51.5574 86.4022 49.8682 85.3565C46.5531 83.304 42.3648 74.1598 40.8013 69.9636C39.4875 66.4378 36.8134 54.1007 41.4339 52.8838C41.5253 52.8131 41.6939 52.741 41.8616 52.6692ZM30.4693 71.6505C29.2507 67.9008 32.2839 59.2841 33.4213 57.5228C33.441 57.5236 33.4603 57.5244 33.4792 57.5252C33.9736 57.5456 34.2126 57.5555 34.4756 57.7336C36.2147 58.4182 37.1703 61.9109 37.9113 64.6196C38.1136 65.3591 38.2999 66.0403 38.4819 66.5898C40.1969 71.8395 42.5329 76.8655 45.4402 81.561C45.7084 81.9874 45.9092 82.4526 46.1082 82.9139C46.3894 83.5658 46.6672 84.2096 47.1271 84.7239V85.9891C45.2945 86.344 41.3472 85.9305 39.9579 84.9348C38.297 84.7455 37.1247 82.7497 36.2114 81.1947C35.9671 80.779 35.7414 80.3947 35.5299 80.085C35.2005 79.6028 34.8424 79.0991 34.4722 78.5785C32.96 76.452 31.2463 74.042 30.4693 71.6505ZM36.795 84.0913C32.8324 82.2815 30.5036 79.8975 30.4693 74.1809C30.9271 74.5462 31.1068 75.0258 31.2985 75.5373C31.4166 75.8526 31.5393 76.18 31.7344 76.5003C31.9933 76.9253 32.2637 77.3897 32.5459 77.8742C33.7464 79.9354 35.1591 82.3612 36.795 83.6696V84.0913ZM72.7613 83.287C73.6389 83.1589 74.5175 83.0306 75.1712 82.6153H77.4906C77.7411 82.8643 78.025 83.0771 78.3341 83.2479C78.2759 88.1038 72.1138 94.1102 69.0563 96.3213C68.9165 96.4226 68.7676 96.5366 68.6095 96.6576C67.451 97.5446 65.7985 98.8099 63.574 98.2191C59.7787 97.2112 57.104 94.259 54.6018 91.4971C53.7897 90.6008 52.9958 89.7244 52.1877 88.9412C52.2766 88.4436 52.3359 88.3469 52.458 88.1478C52.4998 88.0796 52.5491 87.9994 52.6094 87.8869C53.8755 87.586 55.2906 87.4541 56.7281 87.3201C58.3381 87.1701 59.9764 87.0174 61.4654 86.6217C64.6338 85.7797 68.0427 84.7279 70.954 83.6696C71.5001 83.4711 72.1304 83.3791 72.7613 83.287ZM50.6136 94.3845C46.8348 92.1788 42.9398 89.9052 40.5905 86.4108C42.7161 86.5776 47.0037 87.0856 48.8139 87.8869C50.1989 88.4996 51.3003 89.7349 52.3377 90.8984C52.7143 91.3208 53.0825 91.7338 53.4528 92.1041C54.8091 93.4604 56.2498 94.7747 57.6814 96.0808C58.3864 96.7239 59.0891 97.3651 59.7786 98.0082V98.4299C57.1379 98.3349 55.0868 97.0774 53.2952 95.9788C53.1349 95.8805 52.9766 95.7835 52.8202 95.6887C52.0977 95.2508 51.3579 94.8189 50.6136 94.3845Z" fill="#1628B2"/>
</svg>
