<svg width="135" height="135" viewBox="0 0 135 135" fill="none" xmlns="http://www.w3.org/2000/svg">
<circle cx="67.5" cy="69.5" r="59.5" fill="white"/>
<path fill-rule="evenodd" clip-rule="evenodd" d="M67.1296 134.259C104.204 134.259 134.259 104.204 134.259 67.1296C134.259 30.055 104.204 0 67.1296 0C30.055 0 0 30.055 0 67.1296C0 104.204 30.055 134.259 67.1296 134.259ZM31.7281 103.708V27.5248H45.185V33.4083C48.3454 30.7431 57.3881 25.443 68.2759 25.5637C72.048 25.5134 81.4576 27.0119 88.9201 33.4083C92.7941 35.6712 100.94 43.6667 102.53 57.5456V103.708H88.9201V57.5456C88.2575 51.3605 83.2009 39.0203 68.2759 39.1409C61.8023 38.8392 48.1211 42.0978 45.185 57.5456V103.708H31.7281Z" fill="#2C2E82"/>
</svg>
