<svg width="457" height="457" viewBox="0 0 457 457" fill="none" xmlns="http://www.w3.org/2000/svg">
<path fill-rule="evenodd" clip-rule="evenodd" d="M228.5 457C354.697 457 457 354.697 457 228.5C457 102.303 354.697 0 228.5 0C102.303 0 0 102.303 0 228.5C0 354.697 102.303 457 228.5 457ZM108 353V93.6826H153.806V113.709C164.563 104.637 195.343 86.5957 232.404 87.0068C245.243 86.8359 277.272 91.9365 302.674 113.709C315.86 121.411 343.587 148.627 349 195.869V353H302.674V195.869C300.418 174.815 283.206 132.812 232.404 133.222C210.368 132.195 163.8 143.287 153.806 195.869V353H108Z" fill="url(#paint0_linear_303_9)"/>
<defs>
<linearGradient id="paint0_linear_303_9" x1="0" y1="229" x2="457" y2="229" gradientUnits="userSpaceOnUse">
<stop stop-color="#659EF1"/>
<stop offset="1" stop-color="#A388E5"/>
</linearGradient>
</defs>
</svg>
