<svg width="129" height="129" viewBox="0 0 129 129" fill="none" xmlns="http://www.w3.org/2000/svg">
<circle cx="64.5" cy="64.5" r="54.5" fill="white"/>
<path fill-rule="evenodd" clip-rule="evenodd" d="M64.5 129C100.122 129 129 100.122 129 64.5C129 28.8776 100.122 0 64.5 0C28.8776 0 0 28.8776 0 64.5C0 100.122 28.8776 129 64.5 129ZM79.1155 45.4171L79.1739 25.745H75.2611C75.1532 25.745 75.0167 25.7534 74.869 25.7624C74.4556 25.7877 73.954 25.8184 73.7427 25.6866H64.4569C64.6516 26.7069 64.6004 28.1653 64.5535 29.4991C64.5341 30.0534 64.5153 30.5862 64.5153 31.057V41.8563C64.5153 52.8281 64.548 64.0588 64.6321 75.0128V84.5861C64.6321 85.025 64.6167 85.4836 64.6011 85.9474C64.5602 87.1615 64.5181 88.4107 64.7489 89.4312C65.4007 92.3125 65.9933 94.7059 67.377 96.7863C69.396 99.8218 72.4732 101.808 76.4291 102.916C77.0701 103.095 77.762 103.154 78.4595 103.214C79.0532 103.264 79.651 103.315 80.2252 103.441H81.0428C81.9103 103.63 82.9757 103.602 84.0134 103.576C84.3728 103.567 84.729 103.558 85.0724 103.558H87.058C87.3701 103.491 87.7125 103.497 88.0624 103.504C88.4289 103.511 88.8037 103.518 89.1605 103.441C90.1145 103.344 91.0684 103.247 92.0221 103.149V89.7814C91.2777 89.7878 90.5108 89.815 89.7391 89.8423C86.5982 89.9537 83.3786 90.0679 81.2764 88.7891C81.1803 88.7306 81.0849 88.6787 80.9918 88.6282C80.7204 88.4806 80.4693 88.3442 80.2836 88.0886C79.096 86.4557 79.1522 83.6837 79.2084 80.9131C79.2204 80.3241 79.2323 79.7352 79.2323 79.1573V59.5436H92.0221C91.9834 54.8343 91.9444 50.1255 91.9053 45.4171H79.1155ZM46.1775 44.6582C45.4198 44.413 44.516 44.413 43.5495 44.4247C43.4274 44.5006 43.2636 44.504 43.0933 44.5075C42.9719 44.51 42.8472 44.5125 42.7318 44.5415L41.2134 45.0085C39.4116 45.7862 37.992 47.3201 37.2422 49.153C35.4434 53.5509 38.4165 57.4125 41.3886 58.668C42.103 58.9698 43.6487 59.5094 44.8343 59.2518C45.0533 59.2042 45.2742 59.1652 45.4932 59.1266C45.9781 59.0412 46.4537 58.9574 46.8783 58.7848C48.7145 58.0381 50.2442 56.6139 51.0248 54.8153L51.492 53.2976C51.8065 52.0573 51.5458 50.4472 51.2 49.5033C50.2981 47.0419 48.7077 45.4767 46.1775 44.6582ZM43.6728 65.3094C43.4717 65.315 43.2734 65.3204 43.0823 65.3227C42.982 65.3868 42.8605 65.3938 42.7302 65.4012C42.6365 65.4065 42.5382 65.4121 42.4398 65.4394L41.0966 65.9064C39.0711 66.9082 37.6092 68.5604 36.9502 70.9266C36.7691 71.576 36.6757 72.604 36.8334 73.3199C36.8837 73.5487 36.8949 73.7551 36.9057 73.9542C36.9185 74.1919 36.9309 74.4193 37.0086 74.6625C37.7587 77.0103 39.2024 78.5841 41.3886 79.5076C41.8243 79.6959 42.2733 79.852 42.7318 79.9746L43.5495 80.0329C43.7192 80.1079 44.4977 80.2972 44.8343 80.1497C45.198 79.9902 45.6157 79.9043 46.0297 79.8191C46.4308 79.7366 46.8284 79.6548 47.1703 79.5076C48.8513 78.7837 50.297 77.332 51.0248 75.6549L51.492 74.1372C51.8064 72.8969 51.5459 71.2867 51.2 70.3428C50.279 67.8298 48.6128 66.1877 45.9439 65.4394C45.3185 65.264 44.473 65.2874 43.6728 65.3094ZM43.6722 85.5652C43.4713 85.5708 43.2733 85.5763 43.0823 85.5785C42.982 85.6427 42.8606 85.6496 42.7303 85.657C42.6366 85.6623 42.5383 85.6679 42.4398 85.6952C41.9921 85.8507 41.5444 86.0064 41.0966 86.1622C39.0711 87.1639 37.6092 88.8165 36.9502 91.1824C36.7691 91.8321 36.6757 92.8595 36.8334 93.5757C36.8837 93.8046 36.8949 94.0109 36.9057 94.2101C36.9185 94.4478 36.9309 94.6753 37.0086 94.9184C37.7587 97.2662 39.2024 98.8399 41.3886 99.7634C41.8243 99.9517 42.2733 100.108 42.7318 100.23C42.8919 100.242 43.052 100.253 43.2121 100.265C43.3246 100.273 43.437 100.281 43.5495 100.289C43.7192 100.363 44.4977 100.553 44.8343 100.406C45.198 100.246 45.6156 100.16 46.0296 100.075C46.4307 99.9925 46.8283 99.9108 47.1703 99.7634C48.8513 99.0396 50.297 97.5878 51.0248 95.9107L51.492 94.393C51.8064 93.1525 51.5459 91.5426 51.2 90.5987C50.279 88.0857 48.6128 86.4436 45.9439 85.6952C45.3183 85.5198 44.4726 85.5431 43.6722 85.5652Z" fill="#4B0EB0"/>
</svg>
