<svg width="127" height="127" viewBox="0 0 127 127" fill="none" xmlns="http://www.w3.org/2000/svg">
<circle cx="63.5" cy="63.5" r="63.5" fill="#E82127"/>
<path d="M63.5284 115.888L75.9387 46.092C87.7679 46.092 91.4991 47.3891 92.0378 52.6837C92.0378 52.6837 99.9732 49.7249 103.976 43.7156C88.3574 36.4785 72.6647 36.1521 72.6647 36.1521L63.5078 47.3051L63.5284 47.3037L54.3715 36.1504C54.3715 36.1504 38.6785 36.4771 23.0625 43.7142C27.0613 49.7235 34.9998 52.6823 34.9998 52.6823C35.5417 47.3874 39.2683 46.0902 51.0181 46.0818L63.5284 115.888Z" fill="white"/>
<path d="M63.524 32.9319C76.149 32.8353 90.5998 34.8849 105.393 41.3325C107.37 37.7737 107.879 36.2009 107.879 36.2009C91.7074 29.803 76.5632 27.6135 63.5222 27.5586C50.4819 27.6135 35.3385 29.8034 19.1694 36.2009C19.1694 36.2009 19.8908 38.1382 21.6532 41.3325C36.4436 34.8849 50.8968 32.8353 63.5222 32.9319H63.524Z" fill="white"/>
</svg>
