<svg width="457" height="457" viewBox="0 0 457 457" fill="none" xmlns="http://www.w3.org/2000/svg">
<path fill-rule="evenodd" clip-rule="evenodd" d="M228.5 457C354.697 457 457 354.697 457 228.5C457 102.303 354.697 0 228.5 0C102.303 0 0 102.303 0 228.5C0 354.697 102.303 457 228.5 457ZM280.277 160.897L280.483 91.207H266.622C266.239 91.207 265.756 91.2363 265.233 91.2686C263.769 91.3584 261.992 91.4668 261.243 91H228.347C229.036 94.6143 228.854 99.7812 228.689 104.507C228.62 106.47 228.554 108.357 228.554 110.025V148.283C228.554 187.152 228.669 226.938 228.967 265.744V299.659C228.967 301.214 228.913 302.839 228.857 304.481C228.712 308.783 228.563 313.208 229.381 316.824C231.69 327.031 233.79 335.51 238.691 342.88C245.844 353.634 256.745 360.669 270.76 364.594C273.031 365.229 275.482 365.438 277.953 365.649C280.056 365.828 282.174 366.009 284.208 366.455H287.104C290.178 367.123 293.953 367.027 297.63 366.934C298.903 366.901 300.164 366.869 301.38 366.869H308.414C309.334 366.672 310.33 366.655 311.352 366.668C312.845 366.688 314.396 366.772 315.862 366.455L326 365.421V318.064C323.364 318.087 320.648 318.184 317.916 318.28C306.787 318.676 295.38 319.08 287.932 314.549C287.592 314.342 287.254 314.158 286.924 313.979C285.962 313.456 285.072 312.973 284.415 312.067C280.208 306.282 280.406 296.463 280.605 286.647C280.648 284.561 280.69 282.475 280.69 280.427V210.943H326L325.586 160.897H280.277ZM163.589 158.209C160.905 157.341 157.703 157.341 154.279 157.382C153.539 157.843 152.365 157.55 151.382 157.796L146.003 159.45C139.62 162.206 134.591 167.64 131.935 174.133C125.562 189.713 136.095 203.394 146.624 207.841C149.155 208.91 154.631 210.822 158.831 209.909C161.325 209.367 163.888 209.143 166.072 208.255C172.577 205.609 177.996 200.564 180.761 194.192L182.417 188.815C183.531 184.422 182.607 178.718 181.382 175.374C178.187 166.654 172.553 161.109 163.589 158.209ZM154.714 231.369C154.002 231.389 153.301 231.408 152.624 231.416C152.013 231.807 151.182 231.599 150.348 231.83L145.589 233.484C138.414 237.033 133.235 242.887 130.9 251.269C130.259 253.569 129.928 257.211 130.486 259.747C130.665 260.558 130.704 261.288 130.742 261.994C130.788 262.837 130.832 263.643 131.107 264.504C133.765 272.821 138.879 278.396 146.624 281.668C148.167 282.335 149.758 282.888 151.382 283.322L154.279 283.529C154.88 283.795 157.638 284.466 158.831 283.942C160.119 283.378 161.598 283.074 163.063 282.772C164.485 282.48 165.895 282.19 167.106 281.668C173.062 279.104 178.183 273.961 180.761 268.02L182.417 262.643C183.53 258.249 182.607 252.545 181.382 249.201C178.12 240.298 172.217 234.48 162.762 231.83C160.545 231.209 157.549 231.291 154.714 231.369ZM154.714 303.128C154.002 303.147 153.301 303.167 152.624 303.175C152.269 303.402 151.838 303.427 151.377 303.453C151.045 303.473 150.697 303.492 150.348 303.589L145.589 305.243C138.414 308.792 133.235 314.646 130.9 323.027C130.259 325.329 129.928 328.969 130.486 331.507C130.71 332.524 130.715 333.417 130.774 334.291C130.817 334.943 130.891 335.586 131.107 336.263C133.765 344.58 138.879 350.155 146.624 353.427C148.167 354.094 149.758 354.647 151.382 355.081L154.279 355.288C154.88 355.553 157.638 356.225 158.831 355.702C161.368 354.589 164.645 354.488 167.106 353.427C173.062 350.862 178.183 345.72 180.761 339.778L182.417 334.401C183.53 330.007 182.607 324.304 181.382 320.96C178.12 312.057 172.217 306.24 162.762 303.589C160.545 302.968 157.549 303.05 154.714 303.128Z" fill="url(#paint0_linear_289_206)"/>
<defs>
<linearGradient id="paint0_linear_289_206" x1="0" y1="229" x2="457" y2="229" gradientUnits="userSpaceOnUse">
<stop stop-color="#0C70E2"/>
<stop offset="1" stop-color="#84BAF9"/>
</linearGradient>
</defs>
</svg>
