<svg width="4555" height="4555" viewBox="0 0 4555 4555" fill="none" xmlns="http://www.w3.org/2000/svg">
<path fill-rule="evenodd" clip-rule="evenodd" d="M2277.5 4555C3535.33 4555 4555 3535.33 4555 2277.5C4555 1019.67 3535.33 0 2277.5 0C1019.67 0 0 1019.67 0 2277.5C0 3535.33 1019.67 4555 2277.5 4555ZM785.256 3419.3C740.198 3551.04 838.105 3688 977.331 3688H1261.56C1349.07 3688 1426.73 3631.92 1454.25 3548.85L1601.76 3103.64C1629.29 3020.57 1706.95 2964.49 1794.46 2964.49H2639.27C2726.58 2964.49 2804.11 3020.31 2831.79 3103.12L2980.99 3549.37C3008.67 3632.17 3086.2 3688 3173.51 3688H3455.05C3594.54 3688 3692.47 3550.56 3646.93 3418.71L2691.02 651.714C2662.75 569.894 2585.71 515 2499.15 515H1923.74C1836.94 515 1759.75 570.18 1731.66 652.304L785.256 3419.3ZM2019.97 1814.18C2081.06 1629.21 2342.35 1628.14 2404.95 1812.61L2526.6 2171.04C2571.28 2302.69 2473.39 2439.28 2334.37 2439.28H2094.33C1956 2439.28 1858.19 2303.96 1901.57 2172.62L2019.97 1814.18Z" fill="url(#paint0_linear_285_23)"/>
<defs>
<linearGradient id="paint0_linear_285_23" x1="-6.17359e-05" y1="2278" x2="4555" y2="2278" gradientUnits="userSpaceOnUse">
<stop stop-color="#0066DC"/>
<stop offset="1" stop-color="#98C7FF"/>
</linearGradient>
</defs>
</svg>
